<svg height="512" viewBox="0 0 52 58" width="512" xmlns="http://www.w3.org/2000/svg"><g id="Page-1" fill="none" fill-rule="evenodd"><g id="008---To-Do-List" fill-rule="nonzero"><rect id="Rectangle-path" fill="#805333" height="58" rx="3" width="52"/><path id="Shape" d="m7 7h-2c-.55228475 0-1 .44771525-1 1v44.96c.03652998.60588.55374124 1.0695867 1.16 1.04h41.68c.6062588.0295867 1.12347-.43412 1.16-1.04v-44.96c0-.55228475-.4477153-1-1-1z" fill="#f5efca"/><g fill="#cbb292"><path id="Shape" d="m42 31h-24c-.5522847 0-1-.4477153-1-1s.4477153-1 1-1h24c.5522847 0 1 .4477153 1 1s-.4477153 1-1 1z"/><path id="Shape" d="m42 37h-24c-.5522847 0-1-.4477153-1-1s.4477153-1 1-1h24c.5522847 0 1 .4477153 1 1s-.4477153 1-1 1z"/><path id="Shape" d="m42 43h-24c-.5522847 0-1-.4477153-1-1s.4477153-1 1-1h24c.5522847 0 1 .4477153 1 1s-.4477153 1-1 1z"/><path id="Shape" d="m42 49h-24c-.5522847 0-1-.4477153-1-1s.4477153-1 1-1h24c.5522847 0 1 .4477153 1 1s-.4477153 1-1 1z"/><path id="Shape" d="m14 31h-4c-.55228475 0-1-.4477153-1-1s.44771525-1 1-1h4c.5522847 0 1 .4477153 1 1s-.4477153 1-1 1z"/><path id="Shape" d="m14 37h-4c-.55228475 0-1-.4477153-1-1s.44771525-1 1-1h4c.5522847 0 1 .4477153 1 1s-.4477153 1-1 1z"/><path id="Shape" d="m14 43h-4c-.55228475 0-1-.4477153-1-1s.44771525-1 1-1h4c.5522847 0 1 .4477153 1 1s-.4477153 1-1 1z"/><path id="Shape" d="m14 49h-4c-.55228475 0-1-.4477153-1-1s.44771525-1 1-1h4c.5522847 0 1 .4477153 1 1s-.4477153 1-1 1z"/></g><path id="Shape" d="m15 18h-4c-.5522847 0-1 .4477153-1 1s.4477153 1 1 1h1v6c0 .5522847.4477153 1 1 1s1-.4477153 1-1v-6h1c.5522847 0 1-.4477153 1-1s-.4477153-1-1-1z" fill="#547580"/><path id="Shape" d="m19.5 18c-1.9329966 0-3.5 1.5670034-3.5 3.5v2c0 1.9329966 1.5670034 3.5 3.5 3.5s3.5-1.5670034 3.5-3.5v-2c0-1.9329966-1.5670034-3.5-3.5-3.5zm1.5 5.5c0 .8284271-.6715729 1.4999999-1.5 1.4999999s-1.5-.6715728-1.5-1.4999999v-2c0-.8284271.6715729-1.5 1.5-1.5s1.5.6715729 1.5 1.5z" fill="#547580"/><path id="Shape" d="m38.5 18c-1.9329966 0-3.5 1.5670034-3.5 3.5v2c0 1.9329966 1.5670034 3.5 3.5 3.5s3.5-1.5670034 3.5-3.5v-2c0-1.9329966-1.5670034-3.5-3.5-3.5zm1.5 5.5c0 .8284271-.6715729 1.5-1.5 1.5s-1.5-.6715729-1.5-1.5v-2c0-.8284271.6715729-1.5 1.5-1.5s1.5.6715729 1.5 1.5z" fill="#547580"/><path id="Shape" d="m30 18h-1c-1.1045695 0-2 .8954305-2 2v5c0 1.1045695.8954305 2 2 2h1c2.209139 0 4-1.790861 4-4v-1c0-2.209139-1.790861-4-4-4zm2 5c0 1.1045695-.8954305 2-2 2h-1v-5h1c1.1045695 0 2 .8954305 2 2z" fill="#547580"/><path id="Shape" d="m38.94 14h-25.88c-1.3776018.0048612-2.5799764-.9327514-2.911-2.27l-.389-1.581c-.09844886-.35130867.00224104-.72835235.2627267-.98380718.2604857-.25545483.6394212-.34877329.9887433-.24349267s.6135842.39244946.68953.74929985l.39 1.58c.111928.4430541.5120386.7523243.969.749h25.88c.4572525.0032104.857461-.3065485.969-.75l.39-1.579c.0759458-.35685039.3402079-.64401923.68953-.74929985s.7282576-.01196216.9887433.24349267.3611756.63249851.2627267.98380718l-.389 1.58c-.330633 1.3376459-1.5331059 2.2757482-2.911 2.271z" fill="#7f8c8d"/><path id="Shape" d="m30 15h-8c-1.1045695 0-2-.8954305-2-2s.8954305-2 2-2h8c1.1045695 0 2 .8954305 2 2s-.8954305 2-2 2z" fill="#bdc3c7"/><path id="Shape" d="m30 7h-8c-.5522847 0-1-.44771525-1-1s.4477153-1 1-1h8c.5522847 0 1 .44771525 1 1s-.4477153 1-1 1z" fill="#603e26"/><circle id="Oval" cx="10" cy="7" fill="#bdc3c7" r="3"/><circle id="Oval" cx="42" cy="7" fill="#bdc3c7" r="3"/></g></g></svg>